<svg width="36" height="38" viewBox="0 0 36 38" fill="none" xmlns="http://www.w3.org/2000/svg">
<path d="M17.8125 0C7.97525 0 0 8.395 0 18.75C0 29.105 7.97525 37.5 17.8125 37.5C27.6497 37.5 35.625 29.105 35.625 18.75C35.625 8.395 27.6497 0 17.8125 0ZM1.63519 21.0544L6.72184 22.3869C6.69987 22.6394 6.6785 22.8925 6.6785 23.1694C6.67665 25.2295 7.1684 27.2568 8.10825 29.0637L5.54681 30.0775C3.42651 27.5414 2.06563 24.4022 1.63519 21.0544ZM17.8125 35.9375C13.7441 35.9375 10.0219 34.36 7.15944 31.7587L9.28269 30.9056C11.3264 33.5462 14.3901 35.2294 17.8125 35.2294C21.2349 35.2294 24.2986 33.5462 26.3429 30.9056L28.4662 31.7587C25.6043 34.3594 21.8821 35.9375 17.8125 35.9375ZM8.16347 23.1688C8.16347 19.5494 10.3817 18.8225 13.9602 18.8225C14.6163 18.8225 15.2813 18.8463 15.9327 18.8694C17.1855 18.9156 18.4395 18.9156 19.6923 18.8694C20.3454 18.8463 21.0098 18.8225 21.6647 18.8225C25.2445 18.8225 27.4621 19.5494 27.4621 23.1688C27.4621 28.9575 23.1331 33.6669 17.8125 33.6669C12.4919 33.6669 8.16347 28.9575 8.16347 23.1688ZM30.0782 30.0769L27.5168 29.0631C28.4566 27.2561 28.9483 25.2288 28.9465 23.1688C28.9465 22.8919 28.9257 22.6388 28.9037 22.3862L33.9898 21.0538C33.5604 24.4019 32.1994 27.5414 30.0782 30.0769ZM28.3795 20.27C26.9948 17.27 23.4032 17.2606 21.6647 17.2606C20.9932 17.2606 20.3116 17.2844 19.6424 17.3088C18.4233 17.3538 17.2029 17.3538 15.9838 17.3088C15.3096 17.2805 14.635 17.2644 13.9602 17.2606C12.2217 17.2606 8.63075 17.2706 7.24613 20.27L1.48556 18.7712L1.48438 18.75C1.48438 15.0569 2.60063 11.6344 4.49113 8.82938C4.70903 9.14313 5.07003 9.42 5.22262 9.27938C6.17179 8.43594 7.28594 7.82318 8.48575 7.48473C9.68557 7.14627 10.9415 7.09046 12.1642 7.32125C12.5085 7.39187 12.8125 6.05812 12.3951 5.97375C10.0694 5.53924 7.67292 6.00925 5.65191 7.29625C8.64441 3.78 12.9859 1.5625 17.8125 1.5625C22.7258 1.5625 27.1362 3.86188 30.1316 7.48812C28.0796 6.1265 25.6187 5.61991 23.2305 6.0675C22.8131 6.15188 23.1159 7.48625 23.4603 7.415C25.935 6.9475 28.4816 7.665 30.4018 9.37313C30.5627 9.52 30.9546 9.20938 31.1665 8.87813C33.1045 11.7655 34.1436 15.2147 34.1406 18.75V18.7706L28.3795 20.27Z" fill="#DC1E1E"/>
</svg>
